<svg width="2114" height="828" viewBox="0 0 2114 828" fill="none" xmlns="http://www.w3.org/2000/svg">
<path fill-rule="evenodd" clip-rule="evenodd" d="M306.974 280.973H549.503C574.308 280.973 594.416 301.081 594.416 325.885V568.414H504.59V436.984L245 710.363L180.41 647.939L443.636 370.798H306.974V280.973Z" fill="#212121"/>
<path fill-rule="evenodd" clip-rule="evenodd" d="M790.776 405.131L620.653 127.242L294.932 135.628L139.334 421.904L309.457 699.793L635.178 691.407L790.776 405.131ZM912.515 431.949C922.732 413.152 922.144 390.332 910.974 372.085L704.747 35.2214C693.576 16.9748 673.52 6.07361 652.133 6.62426L257.287 16.7902C235.9 17.3409 216.431 29.2597 206.214 48.0569L17.595 395.086C7.37822 413.884 7.96576 436.704 19.1363 454.95L225.363 791.814C236.534 810.06 256.59 820.962 277.977 820.411L672.823 810.245C694.21 809.694 713.679 797.776 723.896 778.978L912.515 431.949Z" fill="#7C3EE3"/>
<path d="M2046.99 531C2033.26 531 2021.41 528.4 2011.42 523.2C2001.65 518 1994.05 510.512 1988.65 500.736C1983.45 490.752 1980.85 479 1980.85 465.48V362.52C1980.85 348.792 1983.45 337.04 1988.65 327.264C1994.05 317.488 2001.65 310 2011.42 304.8C2021.41 299.6 2033.26 297 2046.99 297C2060.72 297 2072.47 299.6 2082.25 304.8C2092.23 310 2099.82 317.488 2105.02 327.264C2110.43 337.04 2113.13 348.688 2113.13 362.208V465.48C2113.13 479 2110.43 490.752 2105.02 500.736C2099.82 510.512 2092.23 518 2082.25 523.2C2072.47 528.4 2060.72 531 2046.99 531ZM2046.99 505.728C2059.26 505.728 2068.62 502.296 2075.07 495.432C2081.73 488.36 2085.05 478.376 2085.05 465.48V362.52C2085.05 349.624 2081.73 339.744 2075.07 332.88C2068.62 325.808 2059.26 322.272 2046.99 322.272C2034.93 322.272 2025.57 325.808 2018.91 332.88C2012.25 339.744 2008.93 349.624 2008.93 362.52V465.48C2008.93 478.376 2012.25 488.36 2018.91 495.432C2025.57 502.296 2034.93 505.728 2046.99 505.728Z" fill="black"/>
<path d="M1781.91 527.88L1841.19 300.12H1878.94L1937.91 527.88H1909.52L1894.54 467.352H1825.59L1810.62 527.88H1781.91ZM1831.21 443.64H1888.62L1871.14 373.44C1867.82 360.128 1865.22 349 1863.34 340.056C1861.47 331.112 1860.33 325.288 1859.91 322.584C1859.5 325.288 1858.35 331.112 1856.48 340.056C1854.61 349 1852.01 360.024 1848.68 373.128L1831.21 443.64Z" fill="black"/>
<path d="M1607.94 527.88V300.12H1666.91C1681.67 300.12 1694.36 302.928 1704.97 308.544C1715.79 314.16 1724.11 322.064 1729.93 332.256C1735.96 342.448 1738.98 354.512 1738.98 368.448V459.24C1738.98 473.176 1735.96 485.344 1729.93 495.744C1724.11 505.936 1715.79 513.84 1704.97 519.456C1694.36 525.072 1681.67 527.88 1666.91 527.88H1607.94ZM1636.02 502.92H1666.91C1680.63 502.92 1691.35 499.072 1699.04 491.376C1706.95 483.68 1710.9 472.968 1710.9 459.24V368.448C1710.9 354.928 1706.95 344.32 1699.04 336.624C1691.35 328.928 1680.63 325.08 1666.91 325.08H1636.02V502.92Z" fill="black"/>
<path d="M1415.87 527.88V300.12H1452.68L1476.4 373.752C1478.68 380.408 1480.76 387.064 1482.64 393.72C1484.51 400.168 1485.86 405.16 1486.69 408.696C1487.73 405.16 1489.08 400.168 1490.75 393.72C1492.41 387.064 1494.28 380.304 1496.36 373.44L1518.83 300.12H1555.64V527.88H1528.19V445.2C1528.19 436.048 1528.5 425.648 1529.12 414C1529.75 402.352 1530.58 390.496 1531.62 378.432C1532.66 366.16 1533.7 354.512 1534.74 343.488C1535.99 332.256 1537.03 322.48 1537.86 314.16L1501.04 428.04H1471.4L1434.28 314.16C1435.32 322.272 1436.36 331.736 1437.4 342.552C1438.44 353.16 1439.37 364.496 1440.2 376.56C1441.04 388.416 1441.76 400.272 1442.39 412.128C1443.01 423.984 1443.32 435.008 1443.32 445.2V527.88H1415.87Z" fill="black"/>
<path d="M1237.84 527.88V502.296H1284.33V325.704H1237.84V300.12H1359.52V325.704H1313.03V502.296H1359.52V527.88H1237.84Z" fill="black"/>
<path d="M1033.6 527.88L1092.88 300.12H1130.63L1189.6 527.88H1161.21L1146.23 467.352H1077.28L1062.3 527.88H1033.6ZM1082.9 443.64H1140.3L1122.83 373.44C1119.5 360.128 1116.9 349 1115.03 340.056C1113.16 331.112 1112.02 325.288 1111.6 322.584C1111.18 325.288 1110.04 331.112 1108.17 340.056C1106.3 349 1103.7 360.024 1100.37 373.128L1082.9 443.64Z" fill="black"/>
</svg>
